<svg xmlns="http://www.w3.org/2000/svg" viewBox="0 0 1040 1040" font-family="Geist, system-ui, sans-serif">
<defs>
<style>
@import url('https://fonts.googleapis.com/css2?family=Syne:wght@700;800&family=Geist:wght@400;500;600&family=JetBrains+Mono:wght@400;500;600&display=swap');
.gring{fill:none;stroke:#d2d7cc;stroke-width:1.3}
.divide{stroke:#e3e7dd;stroke-width:1.2}
.arch{font-family:'Geist';font-size:16px;font-weight:600;fill:#1b2a20}
.geo{font-family:'JetBrains Mono';font-size:12.5px;fill:#79806f;letter-spacing:1px}
.tlab{font-family:'JetBrains Mono';font-size:13.5px;font-weight:600;letter-spacing:.6px}
.fld{font-family:'JetBrains Mono';font-size:13.5px;fill:#6c7468}
.cap{font-family:'JetBrains Mono';font-size:13px;fill:#9aa193;letter-spacing:1px}
</style>
<path id="tp1" d="M185 520 A335 335 0 0 1 855 520"/>
<path id="tp2" d="M163 520 A357 357 0 0 1 877 520"/>
<path id="tp3" d="M141 520 A379 379 0 0 1 899 520"/>
<path id="tp4" d="M119 520 A401 401 0 0 1 921 520"/>
<path id="tp5" d="M97 520 A423 423 0 0 1 943 520"/>
<path id="tp6" d="M75 520 A445 445 0 0 1 965 520"/>
<path id="g1" d="M402 545 A121 121 0 0 1 402 495"/>
<path id="g2" d="M345 557 A179 179 0 0 1 345 483"/>
<path id="g3" d="M288 569 A237 237 0 0 1 288 471"/>
<path id="g4" d="M231 581 A295 295 0 0 1 231 459"/>
</defs>
<rect x="0" y="0" width="1040" height="1040" fill="#f6f7f4"/>
<text class="cap" x="44" y="50">MAPA DE COMPRADORES · fatias = arquétipos · anéis = abrangência · camadas verdes = ferramentas</text>

<!-- tool layers (green gradient, inside to outside) -->
<circle cx="520" cy="520" r="335" fill="none" stroke="#b7e8c8" stroke-width="22"/>
<circle cx="520" cy="520" r="357" fill="none" stroke="#8ed9a9" stroke-width="22"/>
<circle cx="520" cy="520" r="379" fill="none" stroke="#5fc78c" stroke-width="22"/>
<circle cx="520" cy="520" r="401" fill="none" stroke="#36b06e" stroke-width="22"/>
<circle cx="520" cy="520" r="423" fill="none" stroke="#1a9455" stroke-width="22"/>
<circle cx="520" cy="520" r="445" fill="none" stroke="#0a7a42" stroke-width="22"/>

<text class="tlab" fill="#064a29"><textPath href="#tp1" startOffset="50%" text-anchor="middle">matchmaking</textPath></text>
<text class="tlab" fill="#064a29"><textPath href="#tp2" startOffset="50%" text-anchor="middle">parceiros associados</textPath></text>
<text class="tlab" fill="#06371f"><textPath href="#tp3" startOffset="50%" text-anchor="middle">leadgen · 1N · Lusha · Assertiva</textPath></text>
<text class="tlab" fill="#ffffff"><textPath href="#tp4" startOffset="50%" text-anchor="middle">conteúdo</textPath></text>
<text class="tlab" fill="#ffffff"><textPath href="#tp5" startOffset="50%" text-anchor="middle">advertising</textPath></text>
<text class="tlab" fill="#ffffff"><textPath href="#tp6" startOffset="50%" text-anchor="middle">eventos · networking</textPath></text>

<!-- geographic rings -->
<circle cx="520" cy="520" r="92" class="gring"/>
<circle cx="520" cy="520" r="150" class="gring"/>
<circle cx="520" cy="520" r="208" class="gring"/>
<circle cx="520" cy="520" r="266" class="gring"/>
<circle cx="520" cy="520" r="324" class="gring"/>

<!-- radial slice dividers -->
<line class="divide" x1="548" y1="433" x2="620" y2="212"/>
<line class="divide" x1="594" y1="466" x2="782" y2="330"/>
<line class="divide" x1="612" y1="520" x2="844" y2="520"/>
<line class="divide" x1="594" y1="574" x2="782" y2="710"/>
<line class="divide" x1="548" y1="608" x2="620" y2="828"/>
<line class="divide" x1="492" y1="608" x2="420" y2="828"/>
<line class="divide" x1="446" y1="574" x2="258" y2="710"/>
<line class="divide" x1="428" y1="520" x2="196" y2="520"/>
<line class="divide" x1="446" y1="466" x2="258" y2="330"/>
<line class="divide" x1="492" y1="433" x2="420" y2="212"/>

<!-- geographic section labels (curved, in the band) -->
<text class="geo"><textPath href="#g1" startOffset="50%" text-anchor="middle">bairro</textPath></text>
<text class="geo"><textPath href="#g2" startOffset="50%" text-anchor="middle">cidade</textPath></text>
<text class="geo"><textPath href="#g3" startOffset="50%" text-anchor="middle">estado</textPath></text>
<text class="geo"><textPath href="#g4" startOffset="50%" text-anchor="middle">país</textPath></text>

<!-- archetype labels, one per slice -->
<text class="arch" x="520" y="230" text-anchor="middle" dominant-baseline="central" transform="rotate(-90 520 230)">concorrentes</text>
<text class="arch" x="690" y="285" text-anchor="middle" dominant-baseline="central" transform="rotate(-54 690 285)">clientes · canais</text>
<text class="arch" x="796" y="430" text-anchor="middle" dominant-baseline="central" transform="rotate(-18 796 430)">fabricantes</text>
<text class="arch" x="796" y="610" text-anchor="middle" dominant-baseline="central" transform="rotate(18 796 610)">distribuidores</text>
<text class="arch" x="690" y="755" text-anchor="middle" dominant-baseline="central" transform="rotate(54 690 755)">fundos</text>
<text class="arch" x="520" y="810" text-anchor="middle" dominant-baseline="central" transform="rotate(90 520 810)">investidores PF</text>
<text class="arch" x="350" y="755" text-anchor="middle" dominant-baseline="central" transform="rotate(-54 350 755)">grupos · assoc.</text>
<text class="arch" x="244" y="610" text-anchor="middle" dominant-baseline="central" transform="rotate(-18 244 610)">eventos</text>
<text class="arch" x="244" y="430" text-anchor="middle" dominant-baseline="central" transform="rotate(18 244 430)">páginas · perfis</text>
<text class="arch" x="350" y="285" text-anchor="middle" dominant-baseline="central" transform="rotate(54 350 285)">profissionais</text>

<!-- ficha central -->
<rect x="421" y="458" width="198" height="124" rx="16" fill="#ffffff" stroke="#dde2d7" stroke-width="1.4"/>
<text x="520" y="486" text-anchor="middle" font-family="Syne" font-size="19" font-weight="800" fill="#16231b">Padaria do Centro</text>
<line x1="442" y1="499" x2="598" y2="499" stroke="#edefe9"/>
<text class="fld" x="444" y="521">Florianópolis · SC</text>
<text class="fld" x="444" y="542">Alimentação</text>
<text class="fld" x="444" y="563">Pequeno · 12 func.</text>
<text x="576" y="563" text-anchor="end" font-family="Syne" font-size="17" font-weight="700" fill="#0a9a52">R$ 1,2M</text>
</svg>
